<mxfile host="app.diagrams.net" agent="Mozilla/5.0 (Windows NT 10.0; Win64; x64) AppleWebKit/537.36 (KHTML, like Gecko) Chrome/137.0.0.0 Safari/537.36" version="27.2.0">
  <diagram name="Page-1" id="9mHOf-4QEkA5tlbPgJvo">
    <mxGraphModel dx="1042" dy="574" grid="1" gridSize="10" guides="1" tooltips="1" connect="1" arrows="1" fold="1" page="1" pageScale="1" pageWidth="1100" pageHeight="850" math="0" shadow="0">
      <root>
        <mxCell id="0" />
        <mxCell id="1" parent="0" />
        <mxCell id="wzv2SVpdAabkjRXu7HkC-1" value="WEB" style="rounded=0;whiteSpace=wrap;html=1;labelBackgroundColor=none;" vertex="1" parent="1">
          <mxGeometry x="170" y="110" width="100" height="50" as="geometry" />
        </mxCell>
        <mxCell id="wzv2SVpdAabkjRXu7HkC-2" value="DEKSTOP" style="rounded=0;whiteSpace=wrap;html=1;labelBackgroundColor=none;" vertex="1" parent="1">
          <mxGeometry x="170" y="210" width="100" height="50" as="geometry" />
        </mxCell>
        <mxCell id="wzv2SVpdAabkjRXu7HkC-3" value="MOBILE" style="rounded=0;whiteSpace=wrap;html=1;labelBackgroundColor=none;" vertex="1" parent="1">
          <mxGeometry x="170" y="310" width="100" height="50" as="geometry" />
        </mxCell>
        <mxCell id="wzv2SVpdAabkjRXu7HkC-4" value="API Gateway" style="rounded=0;whiteSpace=wrap;html=1;labelBackgroundColor=none;" vertex="1" parent="1">
          <mxGeometry x="410" y="205" width="120" height="60" as="geometry" />
        </mxCell>
        <mxCell id="wzv2SVpdAabkjRXu7HkC-5" value="SIMPEG SERVICE" style="rounded=0;whiteSpace=wrap;html=1;labelBackgroundColor=none;" vertex="1" parent="1">
          <mxGeometry x="640" y="110" width="100" height="55" as="geometry" />
        </mxCell>
        <mxCell id="wzv2SVpdAabkjRXu7HkC-6" value="" style="endArrow=none;html=1;rounded=0;exitX=1;exitY=0.5;exitDx=0;exitDy=0;entryX=0;entryY=0.5;entryDx=0;entryDy=0;labelBackgroundColor=none;fontColor=default;" edge="1" parent="1" source="wzv2SVpdAabkjRXu7HkC-1" target="wzv2SVpdAabkjRXu7HkC-4">
          <mxGeometry width="50" height="50" relative="1" as="geometry">
            <mxPoint x="520" y="400" as="sourcePoint" />
            <mxPoint x="570" y="350" as="targetPoint" />
          </mxGeometry>
        </mxCell>
        <mxCell id="wzv2SVpdAabkjRXu7HkC-7" value="" style="endArrow=none;html=1;rounded=0;exitX=1;exitY=0.5;exitDx=0;exitDy=0;entryX=0;entryY=0.5;entryDx=0;entryDy=0;labelBackgroundColor=none;fontColor=default;" edge="1" parent="1" source="wzv2SVpdAabkjRXu7HkC-2" target="wzv2SVpdAabkjRXu7HkC-4">
          <mxGeometry width="50" height="50" relative="1" as="geometry">
            <mxPoint x="280" y="145" as="sourcePoint" />
            <mxPoint x="420" y="245" as="targetPoint" />
          </mxGeometry>
        </mxCell>
        <mxCell id="wzv2SVpdAabkjRXu7HkC-8" value="" style="endArrow=none;html=1;rounded=0;exitX=1;exitY=0.5;exitDx=0;exitDy=0;entryX=0;entryY=0.5;entryDx=0;entryDy=0;labelBackgroundColor=none;fontColor=default;" edge="1" parent="1" source="wzv2SVpdAabkjRXu7HkC-3" target="wzv2SVpdAabkjRXu7HkC-4">
          <mxGeometry width="50" height="50" relative="1" as="geometry">
            <mxPoint x="280" y="245" as="sourcePoint" />
            <mxPoint x="420" y="245" as="targetPoint" />
          </mxGeometry>
        </mxCell>
        <mxCell id="wzv2SVpdAabkjRXu7HkC-9" value="" style="endArrow=none;html=1;rounded=0;entryX=0;entryY=0.5;entryDx=0;entryDy=0;exitX=1;exitY=0.5;exitDx=0;exitDy=0;labelBackgroundColor=none;fontColor=default;" edge="1" parent="1" source="wzv2SVpdAabkjRXu7HkC-4" target="wzv2SVpdAabkjRXu7HkC-5">
          <mxGeometry width="50" height="50" relative="1" as="geometry">
            <mxPoint x="550" y="250" as="sourcePoint" />
            <mxPoint x="420" y="245" as="targetPoint" />
          </mxGeometry>
        </mxCell>
        <mxCell id="wzv2SVpdAabkjRXu7HkC-10" value="" style="endArrow=none;html=1;rounded=0;entryX=0;entryY=0.5;entryDx=0;entryDy=0;exitX=1;exitY=0.5;exitDx=0;exitDy=0;labelBackgroundColor=none;fontColor=default;" edge="1" parent="1" source="wzv2SVpdAabkjRXu7HkC-4" target="wzv2SVpdAabkjRXu7HkC-12">
          <mxGeometry width="50" height="50" relative="1" as="geometry">
            <mxPoint x="540" y="245" as="sourcePoint" />
            <mxPoint x="630" y="290" as="targetPoint" />
          </mxGeometry>
        </mxCell>
        <mxCell id="wzv2SVpdAabkjRXu7HkC-12" value="SIHAM&lt;div&gt;&amp;nbsp;SERVICE&lt;/div&gt;" style="rounded=0;whiteSpace=wrap;html=1;labelBackgroundColor=none;" vertex="1" parent="1">
          <mxGeometry x="640" y="310" width="100" height="55" as="geometry" />
        </mxCell>
        <mxCell id="wzv2SVpdAabkjRXu7HkC-14" value="" style="endArrow=none;html=1;rounded=0;entryX=0;entryY=0.5;entryDx=0;entryDy=0;exitX=1;exitY=0.5;exitDx=0;exitDy=0;entryPerimeter=0;labelBackgroundColor=none;fontColor=default;" edge="1" parent="1" source="wzv2SVpdAabkjRXu7HkC-5" target="wzv2SVpdAabkjRXu7HkC-17">
          <mxGeometry width="50" height="50" relative="1" as="geometry">
            <mxPoint x="540" y="245" as="sourcePoint" />
            <mxPoint x="819" y="137.5" as="targetPoint" />
          </mxGeometry>
        </mxCell>
        <mxCell id="wzv2SVpdAabkjRXu7HkC-15" value="" style="endArrow=none;html=1;rounded=0;exitX=1;exitY=0.5;exitDx=0;exitDy=0;labelBackgroundColor=none;fontColor=default;entryX=0;entryY=0.5;entryDx=0;entryDy=0;entryPerimeter=0;" edge="1" parent="1" source="wzv2SVpdAabkjRXu7HkC-12" target="wzv2SVpdAabkjRXu7HkC-17">
          <mxGeometry width="50" height="50" relative="1" as="geometry">
            <mxPoint x="740" y="188" as="sourcePoint" />
            <mxPoint x="850" y="240" as="targetPoint" />
          </mxGeometry>
        </mxCell>
        <mxCell id="wzv2SVpdAabkjRXu7HkC-16" value="SIMDATIN&lt;br&gt;&lt;div&gt;&amp;nbsp;SERVICE&lt;/div&gt;" style="rounded=0;whiteSpace=wrap;html=1;labelBackgroundColor=none;" vertex="1" parent="1">
          <mxGeometry x="640" y="207.5" width="100" height="55" as="geometry" />
        </mxCell>
        <mxCell id="wzv2SVpdAabkjRXu7HkC-17" value="database" style="strokeWidth=2;html=1;shape=mxgraph.flowchart.database;whiteSpace=wrap;rounded=0;labelBackgroundColor=none;" vertex="1" parent="1">
          <mxGeometry x="850" y="207.5" width="70" height="55" as="geometry" />
        </mxCell>
        <mxCell id="wzv2SVpdAabkjRXu7HkC-18" value="" style="endArrow=none;html=1;rounded=0;entryX=0;entryY=0.5;entryDx=0;entryDy=0;exitX=1;exitY=0.5;exitDx=0;exitDy=0;entryPerimeter=0;labelBackgroundColor=none;fontColor=default;" edge="1" parent="1" source="wzv2SVpdAabkjRXu7HkC-16" target="wzv2SVpdAabkjRXu7HkC-17">
          <mxGeometry width="50" height="50" relative="1" as="geometry">
            <mxPoint x="750" y="148" as="sourcePoint" />
            <mxPoint x="829" y="148" as="targetPoint" />
          </mxGeometry>
        </mxCell>
        <mxCell id="wzv2SVpdAabkjRXu7HkC-19" value="" style="endArrow=none;html=1;rounded=0;entryX=0;entryY=0.5;entryDx=0;entryDy=0;exitX=1;exitY=0.5;exitDx=0;exitDy=0;labelBackgroundColor=none;fontColor=default;" edge="1" parent="1" source="wzv2SVpdAabkjRXu7HkC-4" target="wzv2SVpdAabkjRXu7HkC-16">
          <mxGeometry width="50" height="50" relative="1" as="geometry">
            <mxPoint x="550" y="232" as="sourcePoint" />
            <mxPoint x="630" y="232" as="targetPoint" />
          </mxGeometry>
        </mxCell>
        <mxCell id="wzv2SVpdAabkjRXu7HkC-23" value="" style="endArrow=none;html=1;rounded=0;entryX=0;entryY=0.5;entryDx=0;entryDy=0;exitX=1;exitY=0.5;exitDx=0;exitDy=0;labelBackgroundColor=none;fontColor=default;exitPerimeter=0;" edge="1" parent="1" source="wzv2SVpdAabkjRXu7HkC-17" target="wzv2SVpdAabkjRXu7HkC-24">
          <mxGeometry width="50" height="50" relative="1" as="geometry">
            <mxPoint x="750" y="148" as="sourcePoint" />
            <mxPoint x="970" y="180" as="targetPoint" />
          </mxGeometry>
        </mxCell>
        <mxCell id="wzv2SVpdAabkjRXu7HkC-24" value="db_simpeg" style="rounded=0;whiteSpace=wrap;html=1;" vertex="1" parent="1">
          <mxGeometry x="980" y="150" width="100" height="40" as="geometry" />
        </mxCell>
        <mxCell id="wzv2SVpdAabkjRXu7HkC-25" value="db_siham" style="rounded=0;whiteSpace=wrap;html=1;" vertex="1" parent="1">
          <mxGeometry x="980" y="280" width="100" height="40" as="geometry" />
        </mxCell>
        <mxCell id="wzv2SVpdAabkjRXu7HkC-26" value="db_simdatin" style="rounded=0;whiteSpace=wrap;html=1;" vertex="1" parent="1">
          <mxGeometry x="980" y="215" width="100" height="40" as="geometry" />
        </mxCell>
        <mxCell id="wzv2SVpdAabkjRXu7HkC-27" value="" style="endArrow=none;html=1;rounded=0;entryX=0;entryY=0.5;entryDx=0;entryDy=0;labelBackgroundColor=none;fontColor=default;exitX=1;exitY=0.5;exitDx=0;exitDy=0;exitPerimeter=0;" edge="1" parent="1" source="wzv2SVpdAabkjRXu7HkC-17" target="wzv2SVpdAabkjRXu7HkC-26">
          <mxGeometry width="50" height="50" relative="1" as="geometry">
            <mxPoint x="970" y="330" as="sourcePoint" />
            <mxPoint x="845" y="70" as="targetPoint" />
          </mxGeometry>
        </mxCell>
        <mxCell id="wzv2SVpdAabkjRXu7HkC-28" value="" style="endArrow=none;html=1;rounded=0;entryX=0;entryY=0.5;entryDx=0;entryDy=0;labelBackgroundColor=none;fontColor=default;exitX=1;exitY=0.5;exitDx=0;exitDy=0;exitPerimeter=0;" edge="1" parent="1" source="wzv2SVpdAabkjRXu7HkC-17" target="wzv2SVpdAabkjRXu7HkC-25">
          <mxGeometry width="50" height="50" relative="1" as="geometry">
            <mxPoint x="930" y="245" as="sourcePoint" />
            <mxPoint x="990" y="245" as="targetPoint" />
          </mxGeometry>
        </mxCell>
      </root>
    </mxGraphModel>
  </diagram>
</mxfile>
